<?xml version="1.0" encoding="UTF-8"?>
<svg xmlns="http://www.w3.org/2000/svg" xmlns:xlink="http://www.w3.org/1999/xlink" width="50pt" height="50pt" viewBox="0 0 50 50" version="1.1">
<g id="surface1">
<path style=" stroke:none;fill-rule:nonzero;fill:rgb(0%,0%,0%);fill-opacity:1;" d="M 41.699219 0 L 8.300781 0 C 5.175781 0 2.636719 2.539062 2.636719 5.664062 L 2.636719 41.796875 C 2.636719 43.410156 3.949219 44.726562 5.566406 44.726562 L 18.390625 44.726562 C 18.929688 44.726562 19.367188 44.289062 19.367188 43.75 C 19.367188 43.210938 18.929688 42.773438 18.390625 42.773438 L 5.566406 42.773438 C 5.027344 42.773438 4.589844 42.335938 4.589844 41.796875 L 4.589844 5.664062 C 4.589844 3.617188 6.253906 1.953125 8.300781 1.953125 L 37.425781 1.953125 C 36.558594 2.949219 36.035156 4.246094 36.035156 5.664062 L 36.035156 37.136719 C 36.035156 38.035156 35.300781 38.769531 34.402344 38.769531 C 33.695312 38.769531 33.074219 38.320312 32.851562 37.652344 L 31.378906 33.234375 C 30.964844 31.988281 29.800781 31.152344 28.488281 31.152344 C 26.804688 31.152344 25.4375 32.519531 25.4375 34.199219 L 25.4375 34.960938 L 20.378906 34.960938 C 19.839844 34.960938 19.402344 35.398438 19.402344 35.9375 C 19.402344 36.476562 19.839844 36.914062 20.378906 36.914062 L 25.4375 36.914062 L 25.4375 41.773438 C 25.4375 43.214844 25.71875 44.621094 26.273438 45.949219 L 27.710938 49.398438 C 27.867188 49.773438 28.230469 50 28.613281 50 C 28.738281 50 28.867188 49.976562 28.988281 49.925781 C 29.488281 49.71875 29.722656 49.144531 29.515625 48.648438 L 28.078125 45.199219 C 27.625 44.109375 27.390625 42.953125 27.390625 41.773438 L 27.390625 34.199219 C 27.390625 33.597656 27.882812 33.105469 28.488281 33.105469 C 28.960938 33.105469 29.378906 33.40625 29.527344 33.855469 L 30.996094 38.269531 C 31.488281 39.738281 32.855469 40.722656 34.402344 40.722656 C 36.378906 40.722656 37.988281 39.113281 37.988281 37.136719 L 37.988281 20.390625 L 39.292969 21.695312 C 41.621094 24.019531 42.902344 27.109375 42.902344 30.398438 L 42.902344 40.78125 C 42.902344 43.46875 42.292969 46.175781 41.140625 48.605469 C 40.910156 49.089844 41.117188 49.675781 41.605469 49.90625 C 42.09375 50.136719 42.675781 49.929688 42.90625 49.441406 C 44.183594 46.753906 44.855469 43.757812 44.855469 40.78125 L 44.855469 30.398438 C 44.855469 26.585938 43.371094 23.003906 40.671875 20.3125 L 37.988281 17.632812 L 37.988281 16.699219 L 44.433594 16.699219 C 46.046875 16.699219 47.363281 15.386719 47.363281 13.769531 L 47.363281 5.664062 C 47.363281 2.539062 44.824219 0 41.699219 0 Z M 45.410156 13.769531 C 45.410156 14.308594 44.972656 14.746094 44.433594 14.746094 L 37.988281 14.746094 L 37.988281 5.664062 C 37.988281 3.617188 39.652344 1.953125 41.699219 1.953125 C 43.746094 1.953125 45.410156 3.617188 45.410156 5.664062 Z M 45.410156 13.769531 "/>
<path style=" stroke:none;fill-rule:nonzero;fill:rgb(0%,0%,0%);fill-opacity:1;" d="M 22.65625 42.773438 C 22.398438 42.773438 22.148438 42.878906 21.964844 43.058594 C 21.785156 43.242188 21.679688 43.492188 21.679688 43.75 C 21.679688 44.007812 21.785156 44.257812 21.964844 44.441406 C 22.148438 44.621094 22.398438 44.726562 22.65625 44.726562 C 22.914062 44.726562 23.164062 44.621094 23.347656 44.441406 C 23.527344 44.257812 23.632812 44.007812 23.632812 43.75 C 23.632812 43.492188 23.527344 43.242188 23.347656 43.058594 C 23.164062 42.878906 22.914062 42.773438 22.65625 42.773438 Z M 22.65625 42.773438 "/>
<path style=" stroke:none;fill-rule:nonzero;fill:rgb(0%,0%,0%);fill-opacity:1;" d="M 16.082031 7.226562 C 16.082031 6.148438 15.203125 5.273438 14.128906 5.273438 L 9.832031 5.273438 C 8.753906 5.273438 7.878906 6.148438 7.878906 7.226562 L 7.878906 11.523438 C 7.878906 12.601562 8.753906 13.476562 9.832031 13.476562 L 14.128906 13.476562 C 15.203125 13.476562 16.082031 12.601562 16.082031 11.523438 Z M 14.128906 11.523438 L 9.832031 11.523438 L 9.832031 7.226562 L 14.128906 7.226562 Z M 14.128906 11.523438 "/>
<path style=" stroke:none;fill-rule:nonzero;fill:rgb(0%,0%,0%);fill-opacity:1;" d="M 16.082031 18.945312 C 16.082031 17.867188 15.203125 16.992188 14.128906 16.992188 L 9.832031 16.992188 C 8.753906 16.992188 7.878906 17.867188 7.878906 18.945312 L 7.878906 23.242188 C 7.878906 24.320312 8.753906 25.195312 9.832031 25.195312 L 14.128906 25.195312 C 15.203125 25.195312 16.082031 24.320312 16.082031 23.242188 Z M 14.128906 23.242188 L 9.832031 23.242188 L 9.832031 18.945312 L 14.128906 18.945312 Z M 14.128906 23.242188 "/>
<path style=" stroke:none;fill-rule:nonzero;fill:rgb(0%,0%,0%);fill-opacity:1;" d="M 14.128906 28.710938 L 9.832031 28.710938 C 8.753906 28.710938 7.878906 29.585938 7.878906 30.664062 L 7.878906 34.960938 C 7.878906 36.039062 8.753906 36.914062 9.832031 36.914062 L 14.128906 36.914062 C 15.203125 36.914062 16.082031 36.039062 16.082031 34.960938 L 16.082031 30.664062 C 16.082031 29.585938 15.203125 28.710938 14.128906 28.710938 Z M 14.128906 34.960938 L 9.832031 34.960938 L 9.832031 30.664062 L 14.128906 30.664062 Z M 14.128906 34.960938 "/>
<path style=" stroke:none;fill-rule:nonzero;fill:rgb(0%,0%,0%);fill-opacity:1;" d="M 31.574219 13.476562 C 32.113281 13.476562 32.550781 13.039062 32.550781 12.5 C 32.550781 11.960938 32.113281 11.523438 31.574219 11.523438 L 24.84375 11.523438 C 24.304688 11.523438 23.867188 11.960938 23.867188 12.5 C 23.867188 13.039062 24.304688 13.476562 24.84375 13.476562 Z M 31.574219 13.476562 "/>
<path style=" stroke:none;fill-rule:nonzero;fill:rgb(0%,0%,0%);fill-opacity:1;" d="M 20.378906 13.476562 C 20.636719 13.476562 20.886719 13.371094 21.066406 13.191406 C 21.25 13.007812 21.355469 12.757812 21.355469 12.5 C 21.355469 12.242188 21.25 11.992188 21.066406 11.808594 C 20.886719 11.628906 20.636719 11.523438 20.378906 11.523438 C 20.121094 11.523438 19.867188 11.628906 19.6875 11.808594 C 19.503906 11.992188 19.402344 12.242188 19.402344 12.5 C 19.402344 12.757812 19.503906 13.007812 19.6875 13.191406 C 19.867188 13.371094 20.121094 13.476562 20.378906 13.476562 Z M 20.378906 13.476562 "/>
<path style=" stroke:none;fill-rule:nonzero;fill:rgb(0%,0%,0%);fill-opacity:1;" d="M 20.378906 25.195312 L 31.574219 25.195312 C 32.113281 25.195312 32.550781 24.757812 32.550781 24.21875 C 32.550781 23.679688 32.113281 23.242188 31.574219 23.242188 L 20.378906 23.242188 C 19.839844 23.242188 19.402344 23.679688 19.402344 24.21875 C 19.402344 24.757812 19.839844 25.195312 20.378906 25.195312 Z M 20.378906 25.195312 "/>
</g>
</svg>
